<svg xmlns="http://www.w3.org/2000/svg" width="18" height="18" viewBox="0 0 18 18">
    <g data-name="그룹 270">
        <path d="M4-.5a.5.5 0 0 0-.354.146l-4 4a.5.5 0 0 0 0 .707.5.5 0 0 0 .707 0l4-4a.5.5 0 0 0 0-.707A.5.5 0 0 0 4-.5z" transform="translate(4.999 7)" style="fill:#4a4a4a"/>
        <path d="M0-.5a.5.5 0 0 0-.354.146.5.5 0 0 0 0 .707l4 4a.5.5 0 1 0 .707-.707l-4-4A.5.5 0 0 0 0-.5z" transform="translate(8.999 6.998)" style="fill:#4a4a4a"/>
    </g>
    <path data-name="&lt;Transparent Rectangle&gt;" transform="rotate(-90 9 9)" style="fill:none" d="M0 0h18v18H0z"/>
</svg>
